{"title":"Burning in the skies Video HD(Linkin Park) Demonboyz","uid":7198342,"size":80691962,"categoryP":"video","categoryS":"music_videos","magnet":"?xt=urn:btih:81baee19a7651bdb62c400441b9bfbb112b82118&amp;dn=Burning+in+the+skies+Video+HD%28Linkin+Park%29+Demonboyz&amp;tr=udp%3A%2F%2Ftracker.openbittorrent.com%3A80&amp;tr=udp%3A%2F%2Fopen.demonii.com%3A1337&amp;tr=udp%3A%2F%2Ftracker.coppersurfer.tk%3A6969&amp;tr=udp%3A%2F%2Fexodus.desync.com%3A6969","seeders":0,"leechers":0,"uploader":"demonboyz","files":11,"time":1334854389,"description":"Linkin Park's international music video for &quot;Burning In The Skies&quot;. \n\n&quot;Burning In The Skies&quot; is off of the album, A THOUSAND SUN\t\n\nGeneral ::\nFormat                           : MP4\nFormat/Info                      : Audio Video Interleave\nFile size                        : 71.1 MiB\nDuration                         : 4mn 15s\nOverall bit rate                 : 2533 Kbps\n\n\nVideo Info ::\nID                               : 0\nFormat                           : AVC\nFormat/Info                      : Advanced Video Codec\nFormat profile                   : &lt;a class=&quot;__cf_email__&quot; href=&quot;/cdn-cgi/l/email-protection&quot; data-cfemail=&quot;0b43626c634b473e253a&quot;&gt;[email&amp;#160;protected]&lt;/a&gt;&lt;script cf-hash='f9e31' type=&quot;text/javascript&quot;&gt;\n/* &lt;![CDATA[ */!function(){try{var t=&quot;currentScript&quot;in document?document.currentScript:function(){for(var t=document.getElementsByTagName(&quot;script&quot;),e=t.length;e--;)if(t[e].getAttribute(&quot;cf-hash&quot;))return t[e]}();if(t&amp;&amp;t.previousSibling){var e,r,n,i,c=t.previousSibling,a=c.getAttribute(&quot;data-cfemail&quot;);if(a){for(e=&quot;&quot;,r=parseInt(a.substr(0,2),16),n=2;a.length-n;n+=2)i=parseInt(a.substr(n,2),16)^r,e+=String.fromCharCode(i);e=document.createTextNode(e),c.parentNode.replaceChild(e,c)}}}catch(u){}}();/* ]]&gt; */&lt;/script&gt;\nFormat settings, CABAC           : Yes\nFormat settings, ReFrames        : 2 frames\nBit rate                         : 2 713 Kbps\nWidth                            : 1920\nHeight                           : 816\nDisplay aspect ratio             : 2.35:1\nFrame rate                       : 23.000 fps\nColor space                      : YUV\nBit depth                        : 8 bits\nScan type                        : Progressive\nStream size                      : 62.6 MiB (89%)\n\n\nAudio Info ::\nID                               : 1\nFormat                           : MPEG Audio\nFormat version                   : Version 1\nFormat profile                   : Layer 3\nCodec ID                         : 55\nCodec ID/Hint                    : MP3\nDuration                         : 4mn 15s\nBit rate mode                    : Constant\nBit rate                         : 127 Kbps\nChannel(s)                       : 2 channels\nCompression mode                 : Lossy\nStream size                      : 7.73 MiB (11%)\t","torrent":{"xt":"urn:btih:81baee19a7651bdb62c400441b9bfbb112b82118","amp;dn":"Burning+in+the+skies+Video+HD%28Linkin+Park%29+Demonboyz","amp;tr":["udp%3A%2F%2Ftracker.openbittorrent.com%3A80","udp%3A%2F%2Fopen.demonii.com%3A1337","udp%3A%2F%2Ftracker.coppersurfer.tk%3A6969","udp%3A%2F%2Fexodus.desync.com%3A6969"],"infoHash":"81baee19a7651bdb62c400441b9bfbb112b82118","infoHashBuffer":{"type":"Buffer","data":[129,186,238,25,167,101,27,219,98,196,0,68,27,155,251,177,18,184,33,24]},"announce":[],"urlList":[]}}